<svg xmlns="http://www.w3.org/2000/svg" width="177" height="64" fill="none"><g filter="url(#a)"><rect width="169" height="56" x="4" fill="#4D5AE5" rx="4" shape-rendering="crispEdges"/><path fill="#fff" d="M46.227 27v.625c0 .86-.112 1.63-.336 2.313-.224.682-.545 1.263-.961 1.742-.412.479-.907.846-1.485 1.101a4.792 4.792 0 0 1-1.922.375 4.772 4.772 0 0 1-1.914-.375 4.299 4.299 0 0 1-1.492-1.101c-.422-.48-.75-1.06-.984-1.742-.23-.683-.344-1.454-.344-2.313V27c0-.86.115-1.628.344-2.305.229-.682.552-1.263.969-1.742.421-.484.919-.851 1.492-1.101a4.688 4.688 0 0 1 1.914-.383c.703 0 1.344.127 1.922.383.578.25 1.075.617 1.492 1.101.417.48.737 1.06.96 1.742.23.677.345 1.446.345 2.305Zm-1.961.625v-.64c0-.636-.063-1.196-.188-1.68-.12-.49-.3-.899-.539-1.227a2.255 2.255 0 0 0-.867-.75 2.567 2.567 0 0 0-1.164-.258c-.433 0-.818.086-1.156.258a2.332 2.332 0 0 0-.868.75c-.234.328-.414.737-.539 1.227a6.756 6.756 0 0 0-.187 1.68v.64c0 .635.062 1.198.187 1.688s.308.903.547 1.242c.245.333.537.586.875.758.339.166.724.25 1.156.25.438 0 .826-.084 1.164-.25a2.34 2.34 0 0 0 .86-.758c.234-.339.411-.753.531-1.242a6.85 6.85 0 0 0 .188-1.688Zm6.265-1.469V33h-1.883v-8.453h1.797l.086 1.61Zm2.586-1.664-.016 1.75a4.904 4.904 0 0 0-.766-.063c-.323 0-.607.048-.851.141-.245.089-.45.22-.617.39-.162.168-.287.37-.375.61-.089.24-.141.508-.157.805l-.43.031c0-.531.053-1.023.157-1.476.104-.453.26-.852.469-1.196.213-.343.479-.612.797-.804.322-.193.695-.29 1.117-.29.114 0 .237.011.367.032.135.02.237.044.305.07Zm6.82 6.758V21h1.89v12h-1.711l-.18-1.75Zm-5.5-2.383v-.164c0-.64.075-1.224.226-1.75a4.12 4.12 0 0 1 .656-1.367c.286-.385.636-.68 1.047-.883a3.035 3.035 0 0 1 1.39-.312c.511 0 .959.099 1.344.297.386.197.714.481.985.851.27.365.487.802.648 1.313a8.62 8.62 0 0 1 .344 1.687v.523a8.45 8.45 0 0 1-.344 1.657c-.161.5-.377.932-.648 1.297-.271.364-.602.645-.992.843-.386.198-.836.297-1.352.297-.51 0-.971-.106-1.383-.32a3.056 3.056 0 0 1-1.039-.898 4.23 4.23 0 0 1-.656-1.36 6.18 6.18 0 0 1-.227-1.71Zm1.882-.164v.164c0 .386.034.745.102 1.078.072.334.184.628.336.883.15.25.346.448.586.594.244.14.536.21.874.21.428 0 .78-.093 1.055-.28a1.92 1.92 0 0 0 .649-.758c.161-.323.27-.683.328-1.078v-1.414a3.453 3.453 0 0 0-.196-.86 2.297 2.297 0 0 0-.382-.695 1.613 1.613 0 0 0-.602-.469 1.885 1.885 0 0 0-.836-.172c-.344 0-.635.073-.875.219-.24.146-.437.346-.594.602a2.96 2.96 0 0 0-.336.89c-.072.339-.109.7-.109 1.086Zm11.843 4.453c-.625 0-1.19-.101-1.695-.304a3.744 3.744 0 0 1-1.281-.868 3.845 3.845 0 0 1-.805-1.304 4.569 4.569 0 0 1-.281-1.617v-.313c0-.662.096-1.26.289-1.797a4.08 4.08 0 0 1 .804-1.375c.344-.385.75-.68 1.22-.883a3.79 3.79 0 0 1 1.523-.304c.604 0 1.132.101 1.586.304.453.203.828.49 1.125.86.302.364.526.8.671 1.304.151.506.227 1.063.227 1.672v.805h-6.531v-1.352h4.672v-.148a2.644 2.644 0 0 0-.204-.953 1.62 1.62 0 0 0-.554-.719c-.25-.182-.584-.273-1-.273-.313 0-.591.067-.836.203-.24.13-.44.32-.602.57-.161.25-.286.552-.375.906a5.095 5.095 0 0 0-.125 1.18v.313c0 .37.05.713.149 1.03.104.313.255.587.453.821.198.234.437.42.719.555.28.13.601.195.96.195.454 0 .857-.091 1.212-.273.354-.183.661-.44.921-.774l.993.961c-.183.266-.42.521-.711.766-.292.24-.649.435-1.07.586-.417.15-.902.226-1.454.226Zm7.382-7V33h-1.882v-8.453h1.796l.086 1.61Zm2.586-1.664-.015 1.75a4.904 4.904 0 0 0-.766-.063c-.323 0-.607.048-.851.141-.245.089-.451.22-.618.39a1.72 1.72 0 0 0-.375.61c-.088.24-.14.508-.156.805l-.43.031c0-.531.053-1.023.157-1.476.104-.453.26-.852.468-1.196.214-.343.48-.612.797-.804.323-.193.696-.29 1.117-.29.115 0 .237.011.368.032.135.02.237.044.304.07Zm12.616 5.578c0-.234-.036-.442-.11-.625a1.22 1.22 0 0 0-.366-.5c-.177-.15-.427-.297-.75-.437a9.958 9.958 0 0 0-1.22-.445 13.532 13.532 0 0 1-1.5-.555 5.71 5.71 0 0 1-1.187-.719 3.076 3.076 0 0 1-.789-.945 2.647 2.647 0 0 1-.28-1.242c0-.464.096-.886.288-1.266.198-.38.477-.708.836-.984a4 4 0 0 1 1.29-.649 5.43 5.43 0 0 1 1.64-.234c.844 0 1.57.156 2.18.468.614.313 1.085.732 1.414 1.258.333.526.5 1.107.5 1.742h-1.946c0-.375-.08-.705-.242-.992a1.642 1.642 0 0 0-.719-.687c-.317-.167-.721-.25-1.21-.25-.464 0-.85.07-1.157.21-.307.141-.536.331-.687.571-.151.24-.227.51-.227.813 0 .213.05.408.148.585.1.172.25.334.454.485.203.146.458.284.765.414.308.13.67.255 1.086.375.63.187 1.18.396 1.649.625.468.224.859.48 1.172.766.312.286.546.611.703.976.156.36.234.768.234 1.227 0 .479-.096.911-.29 1.297-.192.38-.468.705-.827.976a3.96 3.96 0 0 1-1.281.617c-.495.14-1.047.211-1.657.211a6.084 6.084 0 0 1-1.617-.218 4.769 4.769 0 0 1-1.437-.665 3.43 3.43 0 0 1-1.032-1.125c-.255-.453-.382-.981-.382-1.585h1.96c0 .37.063.684.188.945.13.26.31.474.54.64.228.162.494.282.796.36.307.078.635.117.984.117.459 0 .841-.065 1.149-.195.312-.13.547-.313.703-.547.156-.235.234-.505.234-.813Zm7.882 3.086c-.625 0-1.19-.101-1.695-.304a3.743 3.743 0 0 1-1.281-.868 3.844 3.844 0 0 1-.805-1.304 4.569 4.569 0 0 1-.281-1.617v-.313c0-.662.096-1.26.289-1.797.193-.536.46-.995.805-1.375.343-.385.75-.68 1.218-.883a3.79 3.79 0 0 1 1.524-.304c.604 0 1.133.101 1.586.304.453.203.828.49 1.125.86.302.364.526.8.672 1.304.151.506.226 1.063.226 1.672v.805H95.48v-1.352h4.672v-.148a2.65 2.65 0 0 0-.203-.953 1.619 1.619 0 0 0-.555-.719c-.25-.182-.583-.273-1-.273-.312 0-.591.067-.836.203-.24.13-.44.32-.601.57a3 3 0 0 0-.375.906 5.09 5.09 0 0 0-.125 1.18v.313c0 .37.049.713.148 1.03.104.313.255.587.453.821.198.234.438.42.719.555.281.13.601.195.96.195.454 0 .858-.091 1.212-.273.354-.183.661-.44.922-.774l.992.961c-.182.266-.419.521-.711.766-.292.24-.649.435-1.07.586-.417.15-.901.226-1.454.226Zm7.383-7V33h-1.883v-8.453h1.797l.086 1.61Zm2.586-1.664-.016 1.75a4.895 4.895 0 0 0-.766-.063c-.323 0-.606.048-.851.141a1.6 1.6 0 0 0-.992 1c-.089.24-.141.508-.157.805l-.429.031c0-.531.052-1.023.156-1.476.104-.453.26-.852.469-1.196.213-.343.479-.612.797-.804.322-.193.695-.29 1.117-.29.114 0 .237.011.367.032.135.02.237.044.305.07Zm4.71 7.016 2.07-6.961h1.953L114.393 33h-1.219l.133-1.492Zm-1.586-6.961 2.109 6.992.102 1.461h-1.219l-2.953-8.453h1.961Zm9.429 0V33h-1.891v-8.453h1.891Zm-2.016-2.219c0-.286.094-.523.282-.71.192-.194.458-.29.797-.29.333 0 .596.096.789.29a.953.953 0 0 1 .289.71.943.943 0 0 1-.289.703c-.193.188-.456.282-.789.282-.339 0-.605-.094-.797-.282a.952.952 0 0 1-.282-.703Zm8.172 9.328c.307 0 .583-.06.828-.18.25-.124.45-.296.601-.515.157-.219.243-.471.258-.758h1.774a2.642 2.642 0 0 1-.485 1.492 3.353 3.353 0 0 1-1.242 1.07c-.516.261-1.086.391-1.711.391-.646 0-1.208-.11-1.687-.328a3.333 3.333 0 0 1-1.196-.922 4.06 4.06 0 0 1-.718-1.351 5.552 5.552 0 0 1-.235-1.64v-.274c0-.584.078-1.13.235-1.641.161-.516.401-.969.718-1.36.318-.39.716-.695 1.196-.913.479-.224 1.039-.336 1.679-.336.677 0 1.271.135 1.782.406.51.265.911.638 1.203 1.117.297.474.45 1.026.461 1.656h-1.774a1.888 1.888 0 0 0-.234-.843 1.552 1.552 0 0 0-.578-.61c-.245-.15-.539-.226-.883-.226-.38 0-.695.078-.945.234-.25.151-.446.36-.586.625a3.02 3.02 0 0 0-.305.883 5.79 5.79 0 0 0-.086 1.008v.273c0 .349.029.688.086 1.016.057.328.156.622.297.883.146.255.344.46.594.617.25.15.567.226.953.226Zm9.272 1.5c-.625 0-1.19-.101-1.695-.304a3.741 3.741 0 0 1-1.281-.868 3.852 3.852 0 0 1-.805-1.304 4.58 4.58 0 0 1-.281-1.617v-.313c0-.662.096-1.26.289-1.797a4.08 4.08 0 0 1 .805-1.375c.343-.385.75-.68 1.218-.883a3.793 3.793 0 0 1 1.524-.304c.604 0 1.133.101 1.586.304.453.203.828.49 1.125.86.302.364.526.8.672 1.304.151.506.226 1.063.226 1.672v.805h-6.531v-1.352h4.672v-.148a2.656 2.656 0 0 0-.203-.953 1.622 1.622 0 0 0-.555-.719c-.25-.182-.583-.273-1-.273a1.7 1.7 0 0 0-.836.203c-.239.13-.44.32-.601.57-.162.25-.287.552-.375.906a5.057 5.057 0 0 0-.125 1.18v.313c0 .37.049.713.148 1.03.104.313.255.587.453.821.198.234.438.42.719.555.281.13.601.195.961.195.453 0 .857-.091 1.211-.273.354-.183.661-.44.922-.774l.992.961c-.182.266-.419.521-.711.766-.292.24-.649.435-1.07.586-.417.15-.901.226-1.454.226Z"/></g><defs><filter id="a" width="177" height="64" x="0" y="0" color-interpolation-filters="sRGB" filterUnits="userSpaceOnUse"><feFlood flood-opacity="0" result="BackgroundImageFix"/><feColorMatrix in="SourceAlpha" result="hardAlpha" values="0 0 0 0 0 0 0 0 0 0 0 0 0 0 0 0 0 0 127 0"/><feOffset dy="4"/><feGaussianBlur stdDeviation="2"/><feComposite in2="hardAlpha" operator="out"/><feColorMatrix values="0 0 0 0 0 0 0 0 0 0 0 0 0 0 0 0 0 0 0.15 0"/><feBlend in2="BackgroundImageFix" result="effect1_dropShadow_302815_4241"/><feBlend in="SourceGraphic" in2="effect1_dropShadow_302815_4241" result="shape"/></filter></defs></svg>